<?xml version="1.0" encoding="UTF-8" standalone="no"?><!DOCTYPE svg PUBLIC "-//W3C//DTD SVG 1.1//EN" "http://www.w3.org/Graphics/SVG/1.1/DTD/svg11.dtd"><svg width="100%" height="100%" viewBox="0 0 679 302" version="1.1" xmlns="http://www.w3.org/2000/svg" xmlns:xlink="http://www.w3.org/1999/xlink" xml:space="preserve" xmlns:serif="http://www.serif.com/" style="fill-rule:evenodd;clip-rule:evenodd;stroke-linejoin:round;stroke-miterlimit:1.41421;"><g><path id="monkey_border_dark" d="M300.8,154.684c4.2,-27.2 0.4,-55 -11.6,-79.8c-8.8,-18.2 -21.8,-34.3 -37.7,-46.8c-18.9,-14.8 -41.9,-24.5 -65.7,-27.2c-4.7,-0.5 -12,-2.2 -16,1.1c-3.3,2.7 -1,7.7 2,9.7c0.1,0.1 0.2,0.1 0.3,0.2c2.6,1.6 5.8,1.5 8.7,1.9c3.4,0.5 6.9,1.2 10.3,2.1c13.9,3.5 27.3,9.7 39,17.9c38.7,27 57.5,73 48,117.1c-1,4.8 -4.3,17.4 -6.8,25c-15.5,-8 -28.8,-12.7 -41.3,-16.3c0.3,-0.3 3.2,-2.3 3.6,-2.6c4.8,-3.8 9,-8.3 12.5,-13.4c1.2,0.2 2.4,0.3 3.5,0.3c9,0 17.2,-5.5 19.3,-14c1,-4.2 1.6,-11 -4.9,-16.5c-3.3,-2.9 -5.9,-2.1 -5.7,-6.8c0.1,-1 0,-4.6 -0.1,-5.4c-0.1,-3.1 -0.6,-6.2 -1.2,-9.3c-1.2,-5.7 -3.2,-11.3 -5.5,-16.7c-2.2,-4.9 -4.7,-9.7 -7.3,-14.3c-1.2,-2.2 -2.7,-4.3 -3.4,-6.7c-0.2,-0.7 -1.8,-7.7 -1.8,-7.7c0,0 -2,0.9 -3,1c-5.8,-0.3 -11.7,-1.9 -17.2,-3.3c-4.5,-1.2 -9.1,-2.4 -13.8,-3.3c-0.6,-0.1 -1.2,-0.2 -1.9,-0.3c-0.6,-0.1 -1.2,-0.2 -1.8,-0.3c-1.3,-0.2 -2.7,-0.4 -4.1,-0.5c-0.5,0 -0.9,-0.1 -1.4,-0.1c-0.5,0 -0.9,-0.1 -1.3,-0.1c-1.4,0 -2.9,0 -4.3,0.1c-1.6,0.1 -7.7,1.3 -7.7,1.3c0,0 -0.9,-1.2 -2.1,-2.3c-2.2,-2 -4.6,-3.6 -6.8,-4.5c-7.8,-3.2 -18.9,0 -23.5,7.2c-3.2,5 -1.7,11.2 -0.4,16.6c-1.8,1.6 -3.5,3.2 -5.1,4.9c-0.8,-3.1 -2.4,-8.8 -3.4,-11.8c-5.4,-16.7 -13,-33.1 -22.9,-47.7c-67.8,15.4 -118.3,75.5 -118.3,147.2c0,83.4 68.3,149.7 152.6,151c63.7,1 120.3,-42.6 145.5,-105.5c-0.9,-1.3 -5.7,-5 -6.4,-5.7c-0.3,-0.3 -0.7,-0.6 -1,-0.9c0.1,-0.4 0.3,-0.6 0.3,-0.6c4.7,-10.8 7.9,-22.4 9.8,-34.2Zm-53.2,-19.8c1.1,-3.6 2.2,-7.3 3.4,-10.9c0.7,-2.1 1.9,-8.5 4.3,-9c0.6,-0.1 1.2,0 1.7,0.2c0.2,0.1 0.3,0.1 0.5,0.2c0.1,0 0.1,0.1 0.2,0.1c0.1,0 0.1,0.1 0.2,0.1c0.1,0.1 0.2,0.1 0.3,0.2c0.1,0.1 0.2,0.2 0.3,0.3c0.1,0.1 0.3,0.2 0.4,0.3c2.3,2 4.3,5.4 4.8,7.2c1,3.9 -0.3,8.3 -3.3,11.1c-2.2,2.1 -7.8,4.4 -11.1,2.9c-0.1,-0.1 -0.2,-0.1 -0.4,-0.2c-0.1,-0.1 -0.3,-0.1 -0.4,-0.2c0,0 -0.1,0 -0.1,-0.1c0,0 -0.1,-0.1 -0.2,-0.1l-0.1,-0.1c-0.3,-0.3 -0.5,-0.8 -0.6,-1.2c0,-0.3 0.1,-0.6 0.1,-0.8Zm-33.1,-86.8c2.8,1.3 6.6,1.2 9.6,1.6c3.6,0.5 7.6,0.6 11.1,1.6c0.2,0 0.4,0.1 0.6,0.2c-0.3,0 -2.2,0.8 -2.6,0.8c-1.5,0.3 -3.1,0.4 -4.6,0.4c-3.4,-0.1 -6.9,-0.9 -10,-2.4c-0.1,0 -0.3,-0.1 -0.4,-0.2c-0.5,-0.2 -1,-0.5 -1.5,-0.7c-0.7,-0.4 -1.5,-0.8 -2.2,-1.3Zm-59.8,-0.3c0.1,-2.2 0.8,-4.5 2.1,-6.3c2.3,-3.1 6.2,-5 10.1,-4.7c1.4,0.1 4.1,0.9 6.3,2.3c0.8,0.5 1.5,1 2,1.5c0.1,0.1 0.2,0.2 0.3,0.3c0,0 0,0.1 0.1,0.1c1,1.1 1.5,2.4 0.9,3.8c-0.9,2.2 -7.1,4.4 -9.2,5.5c-2.5,1.3 -6.8,4.3 -9.5,4.4c-0.4,0 -0.7,-0.1 -1,-0.2c-0.1,0 -0.2,-0.1 -0.3,-0.2c-0.1,-0.1 -0.2,-0.2 -0.3,-0.3c-1.3,-1.5 -1.5,-4.6 -1.5,-6.2Zm-9.8,41.3c2.7,-3.2 5.8,-6.1 9.3,-8.5c1.4,-0.9 2.8,-1.8 4.3,-2.6c0.7,-0.4 1.5,-0.8 2.3,-1.1l0.1,0c0,0 0.1,0 0.1,-0.1l0.1,0c0,0 0.1,0 0.1,-0.1l0.1,0c0.3,-0.1 0.6,-0.3 0.8,-0.4c0,-0.6 0.1,-1.1 0.2,-1.6c0.3,-2.2 0.9,-4.2 1.8,-6.1c0.3,-0.6 0.6,-1.3 1,-1.9c0.7,-1.2 1.5,-2.4 2.4,-3.4c0.5,-0.5 0.9,-1.1 1.4,-1.6c5.6,-5.5 13.9,-8.4 21.8,-6.7c5.6,1.3 10.7,4.9 14,9.6c3.5,5.1 4.1,10.2 4.1,16.1l0.3,0c0.2,0.1 0.4,0.3 0.8,0.6c0.2,0.2 0.5,0.5 0.8,0.7c0.1,0.1 0.3,0.3 0.4,0.4c0.3,0.3 0.6,0.6 0.9,0.8c0.1,0.2 0.3,0.3 0.4,0.4c0.7,0.6 1.3,1.2 1.8,1.5c0.2,0.1 0.3,0.2 0.4,0.2l0.5,0c0.1,0 0.2,0 0.3,-0.1c0.2,0 0.3,-0.1 0.5,-0.1l0.4,0c4.4,0 8.3,0 12.5,1.8c0.9,0.4 1.8,0.9 2.7,1.3c0.9,0.5 1.7,1 2.5,1.7c4.8,3.6 8.1,8.9 9,15.1c1.1,7.8 -2.2,16.7 -8.5,21.8c-0.5,0.4 -0.9,0.7 -1.4,1c-0.2,0.1 -0.4,0.2 -0.5,0.4c-0.3,0.2 -0.7,0.4 -1,0.6c-0.3,0.2 -0.7,0.4 -1,0.5c-0.3,0.2 -0.7,0.3 -1,0.5l-0.1,0c-0.3,0.1 -0.7,0.2 -1,0.4l-0.1,0c-0.1,0.4 -2.3,15.6 -11.5,22.2c-0.1,0.1 -1,0.8 -1.9,1.6c-1.2,1 -2.6,2.2 -2.8,2.3c-0.3,0.1 -20.1,-1.9 -28.1,-1.6c-10.7,0.4 -19.6,1.4 -29.9,4c-0.3,-0.2 -1.1,-1.1 -1.9,-2c-0.7,-0.7 -1.3,-1.4 -1.5,-1.6c-1,-0.9 -2.1,-1.9 -3,-2.8c-0.4,-0.4 -0.8,-0.8 -1.1,-1.2c-11,-12.3 -15.6,-30.2 -10.6,-46.1c1.7,-5.6 4.8,-11.2 8.8,-15.9Zm-97.9,164.1c-0.3,0.7 -0.5,1.3 -0.8,2l0,0.1c-0.1,0.1 -0.1,0.2 -0.1,0.2c-0.1,-0.1 -0.2,-0.2 -0.3,-0.3c-0.1,-0.1 -0.1,-0.1 -0.2,-0.2c-1.8,-2 -3.4,-4 -5,-6c-0.4,-0.5 -0.9,-1.1 -1.3,-1.6c-0.3,-0.5 -0.7,-0.9 -1,-1.3c-0.1,-0.1 -0.2,-0.2 -0.3,-0.4c-0.1,-0.1 -0.2,-0.2 -0.2,-0.3c-6.1,-7.5 -11.3,-15.5 -15.6,-24c-1.2,-2.1 -2.4,-4.2 -3.4,-6.5c-4.6,-9.5 -8.5,-19.9 -10.9,-30.1c-6.7,-27.6 -5.3,-57.4 4.3,-84.2c3.5,-9.9 8,-19.3 13.5,-28.3c13.1,-21.2 31.5,-38.8 53.1,-51.1c9,-5.1 18.6,-9 28.5,-12c0.6,-0.2 1.3,-0.4 1.9,-0.6c0.5,-0.1 0.9,-0.3 1.4,-0.4c1,-0.3 2,-0.6 3,-0.8c1,-0.3 2.7,-0.8 2.7,-0.8l0.2,0.2c0.2,0.2 0.5,0.5 0.8,0.9c17.6,28.9 24.9,57.2 24.9,57.2c-0.6,0.8 -3.3,4.1 -3.8,5c-0.2,0.3 -0.4,0.6 -0.6,0.9c-0.5,0.9 -1,1.7 -1.7,2.8l-0.5,0.8c-10.3,18.8 -11,42.1 -2.1,61.6c1,2.2 2.1,4.4 3.3,6.4c0.4,0.7 0.8,1.3 1.3,2c1,1.7 2.1,3.3 2.7,5.2c0.2,0.6 0.3,1.3 0.5,2c0.4,1.8 0.7,3.8 0.9,6.2c0,0.8 0.1,1.7 0,2.6c0,0.8 -0.6,2.4 -0.7,2.4c-0.6,0.2 -1.3,0.5 -1.3,0.5l-2.7,1l-2.2,0.9c-0.7,0.2 -1.3,0.5 -2,0.8l-1.1,0.5c-11.7,4.9 -22.7,11.3 -32.7,18.9c-0.3,0.2 -0.6,0.4 -0.9,0.7c-0.7,0.5 -1.4,1 -2,1.6c-0.2,0.1 -0.3,0.3 -0.5,0.4c-0.2,0.2 -0.5,0.4 -0.7,0.6c-0.3,0.2 -0.5,0.4 -0.7,0.6c-0.1,0.1 -0.2,0.2 -0.3,0.3c-0.5,0.4 -1,0.8 -1.5,1.2l-0.1,0.1c-0.1,0.1 -0.2,0.2 -0.3,0.3l-0.3,0.3c-0.3,0.2 -0.6,0.5 -0.8,0.7l-0.1,0.1l-0.1,0.1c-0.6,0.5 -1.2,1 -1.8,1.5l-0.1,0.1c-0.6,0.5 -1.2,1.1 -1.8,1.6c-0.1,0.1 -0.2,0.2 -0.3,0.3c-12.3,11.3 -22.7,24.5 -31,39c-0.2,0.4 -0.4,0.8 -0.6,1.1l-0.2,0.4c-0.1,0.3 -0.3,0.6 -0.5,0.9c-2.6,4.8 -5,9.8 -7.2,15c-0.4,0.1 -0.5,0.5 -0.7,0.9Zm244.7,-58.1c0.1,0.1 0.2,0.2 0.4,0.3c0.8,0.7 1.6,1.5 2.4,2.2c-22.6,55.1 -71.8,90 -112.3,97.9c-33.7,6.6 -69.2,0.8 -99.3,-14.9c-0.5,-0.3 -1,-0.5 -1.5,-0.8c-0.4,-0.2 -0.8,-0.4 -1.2,-0.7c-0.4,-0.2 -0.8,-0.4 -1.2,-0.7c-18.4,-11.3 -25.7,-17.9 -28.1,-20.3c-0.3,-0.3 -0.5,-0.5 -0.6,-0.6l-0.1,-0.1c-0.1,-0.1 -0.1,-0.2 -0.2,-0.2l0,-0.1c0.1,-0.4 0.3,-0.7 0.4,-1.1c4.8,-12.6 11,-24.6 18.6,-35.5c5.6,-7.9 11.9,-15.3 19,-22.1c1.2,-1.1 2.4,-2.2 3.6,-3.3c1.2,-1.1 2.5,-2.1 3.7,-3.2c0.5,-0.5 1.1,-0.9 1.6,-1.3c1.1,-0.9 2.2,-1.8 3.3,-2.6c1.1,-0.9 2.3,-1.7 3.4,-2.5c0.6,-0.4 1.2,-0.8 1.7,-1.2c1.2,-0.8 2.3,-1.6 3.5,-2.3c0.6,-0.4 1.2,-0.8 1.8,-1.1c6,-3.8 12.2,-7.1 18.6,-10c8.3,-3.7 17,-6.7 25.9,-8.9c4.2,-1 8.4,-1.8 12.6,-2.4c0.7,-0.1 1.4,-0.2 2.1,-0.3c1.4,-0.2 2.8,-0.3 4.2,-0.5c1.9,-0.2 3.8,-0.4 5.6,-0.5c0.4,0 0.8,0 1.2,-0.1c3.6,-0.2 7.3,-0.3 10.9,-0.2c1,0 2,0.1 3,0.1l3.3,0c0.9,0 1.9,0.1 2.8,0.1c0.6,0 1.2,0.1 1.9,0.1c0.8,0 1.6,0.1 2.4,0.2c0.5,0 1,0.1 1.5,0.1c1.3,0.1 2.5,0.2 3.8,0.4c4.3,0.5 8.6,1.2 12.9,2c3.1,0.6 6.2,1.4 9.3,2.2c1,0.3 2,0.6 3.1,0.9c3,0.9 6.1,1.9 9.1,3c2,0.7 4,1.5 5.9,2.3c1,0.4 2,0.8 2.9,1.3c1,0.4 1.9,0.9 2.9,1.3c0.8,0.4 1.6,0.7 2.3,1.1c0.3,0.1 0.7,0.3 1,0.5c0.8,0.4 1.6,0.8 2.4,1.2c1.9,1 3.8,2 5.6,3c0.9,0.5 1.8,1.1 2.8,1.6c1.8,1.1 3.6,2.2 5.4,3.4c4.4,2.9 8.7,6.1 12.8,9.6c0.9,1 1.9,1.9 2.9,2.7Z" style="fill:#20273a;fill-rule:nonzero;"/><path id="monkey_face" d="M242.9,105.284c-0.9,-6.1 -4.2,-11.4 -9,-15.1c-0.8,-0.6 -1.6,-1.2 -2.5,-1.7c-0.9,-0.5 -1.8,-0.9 -2.7,-1.3c-4.2,-1.8 -8,-1.8 -12.5,-1.8l-0.2,0l-0.1,0l-0.1,0c-0.2,0 -0.3,0.1 -0.5,0.1c-0.1,0 -0.2,0 -0.3,0.1c-0.1,0 -0.2,0 -0.3,0l-0.1,0l-0.1,0c-0.1,0 -0.3,-0.1 -0.4,-0.2c-0.5,-0.3 -1.2,-0.9 -1.8,-1.5c-0.2,-0.1 -0.3,-0.3 -0.4,-0.4c-0.3,-0.3 -0.6,-0.6 -0.9,-0.8c-0.2,-0.1 -0.3,-0.3 -0.4,-0.4c-0.3,-0.3 -0.5,-0.5 -0.8,-0.7c-0.3,-0.3 -0.6,-0.5 -0.8,-0.6l-0.1,0l-0.1,0l-0.1,0c0,-5.9 -0.6,-11 -4.1,-16.1c-3.3,-4.8 -8.4,-8.4 -14,-9.6c-7.9,-1.7 -16.2,1.1 -21.8,6.7c-0.5,0.5 -1,1 -1.4,1.6c-0.9,1.1 -1.7,2.2 -2.4,3.4c-0.3,0.6 -0.7,1.2 -1,1.9c-0.9,1.9 -1.5,4 -1.8,6.1c-0.1,0.5 -0.2,1.1 -0.2,1.6c-0.3,0.2 -0.5,0.3 -0.8,0.4l-0.1,0l-0.1,0.1l-0.1,0c-0.1,0 -0.1,0 -0.1,0.1l-0.1,0c-0.8,0.3 -1.5,0.7 -2.3,1.1c-1.5,0.8 -2.9,1.7 -4.3,2.6c-3.4,2.4 -6.6,5.3 -9.3,8.5c-4,4.8 -7.1,10.3 -9,16.2c-5,15.9 -0.5,33.8 10.6,46.1c0.4,0.4 0.8,0.8 1.1,1.2c1,1 2,1.9 3,2.8c0.2,0.2 0.8,0.9 1.5,1.6c0.8,0.9 1.6,1.8 1.9,2c10.3,-2.7 19.2,-3.7 29.9,-4c8.1,-0.3 27.9,1.8 28.1,1.6c0.2,-0.1 1.6,-1.3 2.8,-2.3c0.9,-0.8 1.8,-1.5 1.9,-1.6c9.1,-6.6 11.4,-21.8 11.5,-22.2l0.1,0c0.1,0 0,0 0,0c0.4,-0.1 0.7,-0.2 1,-0.4l0.1,0c0.4,-0.1 0.7,-0.3 1,-0.5c0.3,-0.2 0.7,-0.3 1,-0.5c0.3,-0.2 0.7,-0.4 1,-0.6c0.2,-0.1 0.4,-0.2 0.5,-0.4c0.5,-0.3 0.9,-0.7 1.4,-1c6.5,-5.3 9.8,-14.3 8.7,-22.1Zm-55.5,-10.5l-2.3,0.1c0,0 -0.8,-9.2 -11.2,-9.4c-0.2,0 -0.4,0 -0.5,0l-0.1,-1.1l-0.1,-1.2c1.4,0 2.7,-0.1 4,0.2c2.6,0.5 5.2,2 7,3.9c1.6,1.9 3.2,4.8 3.2,7.5Zm28.3,26.3l-1.4,0.2c0,0 0,-0.1 0,-0.2c0,0 -1.3,-8.5 -11,-9.4c-0.2,0 -0.6,0 -0.7,0l-0.1,-1.1l-0.1,-1.2c0.7,-0.1 1.4,-0.1 2.1,0c5.6,0.4 10.6,4.5 11.9,10c0.1,0.5 0.3,1.6 0.3,1.6l-1,0.1Z" style="fill:#e5e5e5;fill-rule:nonzero;"/><path id="mouth" d="M209.1,143.084c-1.2,0.7 -2.7,0.9 -4.1,0.9c-3.1,-0.1 -6.1,-0.2 -9.1,-0.9c-2.9,-0.6 -5.9,-1.5 -8.7,-2.6c-7.8,-3.1 -15,-7.9 -20.8,-14l-0.1,-0.1c-3.1,-3.3 -5.9,-6.8 -8.2,-10.6c-1.2,-1.9 -2.3,-3.9 -3.2,-6c-1.3,-2.9 -2.1,-5.6 -2.5,-8.8c-0.2,-1.6 -0.4,-3.3 0.6,-4.7c1,-1.4 1.1,1.3 1.2,1.9c0.2,0.8 0.3,1.6 0.5,2.5c2.1,8.6 6.2,16.6 12.1,23.2c5.6,6.3 12.8,11.2 20.6,14.2c6.4,2.5 13.2,3.7 20,3.6c0.6,0 1.9,-0.3 2.3,0.2c0.5,0.6 -0.2,1 -0.6,1.2Z" style="fill:#273940;fill-rule:nonzero;"/><g id="eyes"><path d="M216.5,120.984l-0.9,0.1l-1.4,0.2c0,0 0,-0.1 0,-0.2c0,0 -1.3,-8.5 -11,-9.4c-0.2,0 -0.6,0 -0.7,0l-0.1,-1.1l-0.1,-1.2c0.7,-0.1 1.4,-0.1 2.1,0c5.6,0.4 10.6,4.5 11.9,10c0.1,0.5 0.2,1.6 0.2,1.6Z" style="fill:#273940;fill-rule:nonzero;"/><path d="M187.4,94.684l-2.3,0.2c0,0 -0.8,-9.2 -11.2,-9.4c-0.2,0 -0.4,0 -0.5,0l-0.1,-1.1l-0.1,-1.2c1.4,0 2.7,-0.1 4,0.2c2.6,0.5 5.2,2 7,3.9c1.6,1.9 3.2,4.8 3.2,7.4Z" style="fill:#273940;fill-rule:nonzero;"/></g><g id="Leaves"><path d="M295.5,198.384c-3.7,10.6 -9.3,20.6 -15,30c-21.8,34.5 -57.7,59.9 -98.2,67.8c-33.7,6.6 -69.2,0.8 -99.3,-14.9c-0.5,-0.3 -1,-0.5 -1.5,-0.8c-0.4,-0.2 -0.8,-0.4 -1.2,-0.6c-0.4,-0.2 -0.8,-0.4 -1.2,-0.7c-5.6,-3.1 -11.5,-6.2 -16.7,-10c-2.5,-1.9 -11.9,-10 -11.9,-10c0.1,-0.3 0.2,-0.5 0.3,-0.8c43.3,-107.3 162.1,-122.1 237.8,-65.7c1.3,0.9 2.5,1.9 3.7,2.8c1,0.7 2.4,2.1 3.2,2.9Z" style="fill:#34a448;fill-rule:nonzero;"/><path d="M142.3,163.384c-14.9,5.1 -29.9,12.4 -42.9,22c-0.3,0.2 -0.6,0.4 -0.9,0.7c-1.1,0.8 -2.2,1.7 -3.3,2.5c-0.3,0.2 -0.5,0.4 -0.7,0.6c-0.1,0.1 -0.2,0.2 -0.3,0.3c-2.4,2 -4.7,4 -7,6.2c-7.8,7.5 -15,15.6 -21.4,24.3c-6.5,9 -11.9,18.8 -16.5,28.8c-0.6,1.4 -1.2,2.7 -1.9,4.1c-0.2,0.5 -1.2,2.4 -1.3,2.7c-0.1,-0.1 -0.2,-0.2 -0.3,-0.3c-0.1,-0.1 -0.1,-0.1 -0.2,-0.2c-0.7,-0.9 -1.4,-2.1 -1.4,-2.1c-86.4,-118 -7.5,-221.8 63.2,-243.8c0.6,-0.2 1.3,-0.4 1.9,-0.6c0.4,-0.1 5.1,-1.4 6.8,-1.9c0.4,-0.1 0.6,-0.2 0.6,-0.2c0,0 3,5.1 4.6,7.8c0.9,1.5 1.9,3.2 3,5.1c0.1,0.2 0.2,0.4 0.4,0.7l0.1,0.1c0,0.1 0.1,0.1 0.1,0.2c3.6,6.5 6.9,13.3 9.8,20.2c1.8,4.2 3.4,8.6 4.8,12.9c1.3,4 2.5,8 3.5,12c-1.5,1.8 -2.9,3.7 -4.2,5.7c-10.7,16 -13.5,36.9 -7.8,55.3c1.3,4.1 3,8 5,11.8c2.1,3.9 4.9,7.2 7.5,10.8c0.7,0.7 -1,13.6 -1.2,14.3Z" style="fill:#34a448;fill-rule:nonzero;"/></g><g id="shades"><path d="M116.2,6.684c-1.7,0.5 -6.4,1.8 -6.8,1.9c-0.6,0.2 -1.3,0.4 -1.9,0.6c-70.7,22 -149.6,125.8 -63.2,243.8c0,0 0.7,1.2 1.4,2.1c-1.8,-2 -3.4,-4 -5,-6c-0.4,-0.5 -0.9,-1.1 -1.3,-1.6c-0.3,-0.5 -0.7,-0.9 -1,-1.3c-0.1,-0.1 -0.2,-0.2 -0.3,-0.4c-0.1,-0.1 -0.2,-0.2 -0.2,-0.3c-6.1,-7.5 -11.3,-15.5 -15.6,-24c-1.2,-2.1 -2.4,-4.2 -3.4,-6.5c-4.6,-9.5 -8.5,-19.9 -10.9,-30.1c-6.7,-27.6 -5.3,-57.4 4.3,-84.2c3.5,-9.9 8,-19.3 13.5,-28.3c13.1,-21.2 31.5,-38.8 53.1,-51.1c9,-5.1 18.6,-9 28.5,-12c0.6,-0.2 1.3,-0.4 1.9,-0.6c0.5,-0.1 0.9,-0.3 1.4,-0.4c1,-0.3 2,-0.6 3,-0.8c0.7,-0.4 2.4,-0.9 2.5,-0.8Z" style="fill:#fff;fill-rule:nonzero;"/><path d="M288.7,192.584c-75.8,-56.4 -194.6,-41.7 -237.8,65.7c-0.3,-0.3 -0.5,-0.5 -0.6,-0.6c0,-0.1 -0.1,-0.1 -0.1,-0.1c-0.1,-0.1 -0.1,-0.2 -0.2,-0.2l0,-0.1c0.1,-0.4 0.3,-0.7 0.4,-1.1c4.8,-12.6 11,-24.6 18.6,-35.5c5.6,-7.9 11.9,-15.3 19,-22.1c1.2,-1.1 2.4,-2.2 3.6,-3.3c1.2,-1.1 2.5,-2.1 3.7,-3.2c0.5,-0.5 1.1,-0.9 1.6,-1.3c1.1,-0.9 2.2,-1.8 3.3,-2.6c1.1,-0.9 2.3,-1.7 3.4,-2.5c0.6,-0.4 1.2,-0.8 1.7,-1.2c1.2,-0.8 2.3,-1.6 3.5,-2.3c0.6,-0.4 1.2,-0.8 1.8,-1.1c6,-3.8 12.2,-7.1 18.6,-10c8.3,-3.7 17,-6.7 25.9,-8.9c4.2,-1 8.4,-1.8 12.6,-2.4c0.7,-0.1 1.4,-0.2 2.1,-0.3c1.4,-0.2 2.8,-0.3 4.2,-0.5c1.9,-0.2 3.8,-0.4 5.6,-0.5c0.4,0 0.8,0 1.2,-0.1c3.6,-0.2 7.3,-0.3 10.9,-0.2c1,0 2,0.1 3,0.1l3.3,0c4.1,0.1 8.3,0.4 12.4,0.9c4.3,0.5 8.6,1.2 12.9,2c3.1,0.6 6.2,1.4 9.3,2.2c1,0.3 2,0.6 3.1,0.9c3,0.9 6.1,1.9 9.1,3c2,0.7 4,1.5 5.9,2.3c3.9,1.6 7.8,3.4 11.6,5.4c1.9,1 3.8,2 5.6,3c0.9,0.5 1.8,1.1 2.8,1.6c1.8,1.1 3.6,2.2 5.4,3.4c4.3,2.9 8.5,6.1 12.6,9.6Z" style="fill:#fff;fill-rule:nonzero;"/><path d="M235.8,51.484c-0.3,0 -2.2,0.8 -2.6,0.8c-1.5,0.3 -3.1,0.4 -4.6,0.4c-3.4,-0.1 -6.9,-0.9 -10,-2.4c-0.1,0 -0.3,-0.1 -0.4,-0.2c-0.5,-0.2 -1,-0.5 -1.5,-0.7c-0.7,-0.4 -1.5,-0.8 -2.3,-1.2l0.1,0c2.8,1.3 6.6,1.2 9.6,1.6c3.6,0.5 7.6,0.6 11.1,1.6c0.2,-0.1 0.4,0 0.6,0.1Z" style="fill:#fff;fill-rule:nonzero;"/></g><g id="ears"><path d="M260.4,134.684c-2.2,2.1 -7.8,4.4 -11.1,2.9c-0.2,-0.1 -0.5,-0.3 -0.7,-0.4c-0.1,-0.1 -0.3,-0.2 -0.4,-0.3c-0.3,-0.3 -0.5,-0.8 -0.6,-1.2c0,-0.3 0,-0.5 0.1,-0.8c1.1,-3.6 2.2,-7.3 3.4,-10.9c0.7,-2.1 1.9,-8.5 4.3,-9c0.6,-0.1 1.2,0 1.7,0.2c0.6,0.3 1.3,0.7 1.9,1.2c2.3,2 4.3,5.4 4.8,7.2c0.8,4 -0.4,8.3 -3.4,11.1Z" style="fill:#e5e5e5;fill-rule:nonzero;"/><path d="M176.6,44.584c-0.9,2.2 -7.1,4.4 -9.2,5.5c-2.5,1.3 -6.8,4.3 -9.5,4.4c-0.4,0 -0.7,-0.1 -1,-0.2c-0.1,0 -0.2,-0.1 -0.3,-0.2c-0.1,-0.1 -0.2,-0.2 -0.3,-0.3c-1.4,-1.3 -1.6,-4.4 -1.5,-6.1c0.1,-2.2 0.8,-4.5 2.1,-6.3c2.3,-3.1 6.2,-5 10.1,-4.7c1.4,0.1 4.1,0.9 6.3,2.3c0.8,0.5 1.5,1 2,1.5c0.1,0.1 0.2,0.2 0.3,0.3c0,0 0,0.1 0.1,0.1c1.1,1.1 1.5,2.4 0.9,3.7Z" style="fill:#e5e5e5;fill-rule:nonzero;"/></g><g id="jungle_text"><path d="M400.5,194.984c0,2.7 -0.3,5.2 -0.9,7.5c-0.6,2.3 -1.6,4.4 -3.1,6.1c-1.5,1.7 -3.5,3.1 -6,4.1c-2.5,1 -5.7,1.5 -9.6,1.5c-3.5,0 -6.6,-0.4 -9.1,-1.3c-2.5,-0.9 -4.7,-1.9 -6.3,-3l4.1,-9.4c1.5,0.9 3.1,1.7 4.8,2.3c1.7,0.7 3.6,1 5.6,1c3,0 5.1,-0.7 6.4,-2.2c1.3,-1.5 2,-3.9 2,-7.3l0,-35.3l12.2,0l0,36l-0.1,0Z" style="fill:#20273a;fill-rule:nonzero;"/><path d="M436.5,214.284c-3.8,0 -7.1,-0.5 -9.8,-1.6c-2.8,-1.1 -5,-2.5 -6.8,-4.4c-1.8,-1.9 -3.1,-4.2 -4,-6.8c-0.9,-2.6 -1.3,-5.5 -1.3,-8.7l0,-33.6l12.2,0l0,32.6c0,2.2 0.2,4 0.7,5.6c0.5,1.5 1.2,2.8 2,3.7c0.9,1 1.9,1.7 3.1,2.1c1.2,0.4 2.6,0.6 4,0.6c3,0 5.4,-0.9 7.2,-2.7c1.8,-1.8 2.8,-4.9 2.8,-9.3l0,-32.6l12.2,0l0,33.6c0,3.2 -0.4,6.1 -1.3,8.7c-0.9,2.7 -2.2,4.9 -4.1,6.8c-1.8,1.9 -4.1,3.4 -6.9,4.4c-2.9,1.1 -6.2,1.6 -10,1.6Z" style="fill:#20273a;fill-rule:nonzero;"/><path d="M509.9,213.184c-3.5,-6.2 -7.3,-12.3 -11.3,-18.3c-4.1,-6 -8.4,-11.7 -13,-17.1l0,35.4l-12,0l0,-54.1l9.9,0c1.7,1.7 3.6,3.8 5.7,6.3c2.1,2.5 4.2,5.2 6.4,8c2.2,2.8 4.3,5.8 6.4,8.8c2.1,3 4.1,6 6,8.8l0,-31.9l12.1,0l0,54.1l-10.2,0Z" style="fill:#20273a;fill-rule:nonzero;"/><path d="M562.1,168.484c-5.7,0 -9.8,1.6 -12.3,4.7c-2.5,3.1 -3.8,7.5 -3.8,12.9c0,2.7 0.3,5.1 0.9,7.2c0.6,2.2 1.6,4 2.8,5.6c1.2,1.6 2.8,2.8 4.7,3.6c1.9,0.9 4.1,1.3 6.6,1.3c1.4,0 2.5,0 3.5,-0.1c1,-0.1 1.8,-0.2 2.5,-0.3l0,-18.8l12.2,0l0,26.8c-1.5,0.6 -3.8,1.2 -7,1.8c-3.2,0.7 -7.2,1 -11.9,1c-4.1,0 -7.7,-0.6 -11,-1.9c-3.3,-1.2 -6.1,-3.1 -8.5,-5.5c-2.3,-2.4 -4.1,-5.3 -5.4,-8.8c-1.3,-3.5 -1.9,-7.5 -1.9,-11.9c0,-4.5 0.7,-8.5 2.1,-12c1.4,-3.5 3.3,-6.4 5.8,-8.9c2.4,-2.4 5.3,-4.3 8.6,-5.5c3.3,-1.2 6.8,-1.9 10.6,-1.9c2.5,0 4.9,0.2 6.9,0.5c2.1,0.3 3.8,0.7 5.3,1.2c1.5,0.4 2.7,0.9 3.7,1.4c1,0.5 1.7,0.8 2.1,1.1l-3.5,9.8c-1.7,-0.9 -3.6,-1.7 -5.7,-2.3c-2.4,-0.7 -4.8,-1 -7.3,-1Z" style="fill:#20273a;fill-rule:nonzero;"/><path d="M629.8,202.784l0,10.5l-36.2,0l0,-54.1l12.2,0l0,43.6l24,0Z" style="fill:#20273a;fill-rule:nonzero;"/><path d="M640.7,213.184l0,-54.1l36.5,0l0,10.2l-24.3,0l0,10.6l21.6,0l0,10l-21.6,0l0,13l26.1,0l0,10.2l-38.3,0l0,0.1Z" style="fill:#20273a;fill-rule:nonzero;"/></g><g id="car_seat_text"><path d="M366.8,125.984c0,-2.8 0.5,-5.4 1.4,-7.9c1,-2.5 2.3,-4.6 4.1,-6.5c1.7,-1.8 3.8,-3.3 6.3,-4.4c2.4,-1.1 5.1,-1.6 8,-1.6c3.7,0 7,0.8 9.8,2.5c2.8,1.7 4.9,4 6.3,6.9l-5,1.6c-1.1,-2 -2.7,-3.6 -4.7,-4.7c-2,-1.1 -4.2,-1.7 -6.6,-1.7c-2,0 -3.9,0.4 -5.7,1.2c-1.7,0.8 -3.3,1.9 -4.6,3.3c-1.3,1.4 -2.3,3 -3,5c-0.7,1.9 -1.1,4 -1.1,6.3c0,2.2 0.4,4.3 1.1,6.3c0.8,2 1.8,3.7 3.1,5.1c1.3,1.4 2.8,2.6 4.6,3.4c1.7,0.8 3.6,1.3 5.6,1.3c1.3,0 2.5,-0.2 3.8,-0.5c1.2,-0.4 2.4,-0.8 3.5,-1.5c1.1,-0.6 2,-1.4 2.7,-2.2c0.8,-0.8 1.3,-1.7 1.6,-2.6l5.1,1.5c-0.6,1.4 -1.4,2.7 -2.4,3.9c-1.1,1.2 -2.3,2.2 -3.8,3.1c-1.4,0.9 -3,1.6 -4.8,2c-1.7,0.5 -3.6,0.7 -5.4,0.7c-2.9,0 -5.5,-0.5 -8,-1.6c-2.4,-1.1 -4.5,-2.6 -6.3,-4.5c-1.8,-1.9 -3.1,-4.1 -4.1,-6.6c-1,-2.3 -1.5,-5 -1.5,-7.8Z" style="fill:#20273a;fill-rule:nonzero;"/><path d="M428.7,146.584c-1.9,0 -3.6,-0.3 -5.2,-0.9c-1.6,-0.6 -3,-1.5 -4.2,-2.6c-1.2,-1.1 -2.1,-2.4 -2.8,-3.9c-0.7,-1.5 -1,-3.1 -1,-4.8c0,-1.7 0.4,-3.3 1.2,-4.8c0.8,-1.5 1.9,-2.7 3.4,-3.8c1.5,-1.1 3.2,-1.9 5.2,-2.5c2,-0.6 4.2,-0.9 6.7,-0.9c2,0 4.1,0.2 6.1,0.5c2.1,0.4 3.9,0.9 5.5,1.5l0,-3.6c0,-3.5 -1,-6.3 -3,-8.3c-2,-2 -4.7,-3.1 -8.2,-3.1c-2,0 -4.1,0.4 -6.2,1.2c-2.1,0.8 -4.3,2 -6.4,3.5l-1.8,-3.4c5.1,-3.4 10.1,-5.2 14.9,-5.2c5,0 8.8,1.4 11.7,4.2c2.8,2.8 4.2,6.6 4.2,11.5l0,17.8c0,1.4 0.6,2.1 1.9,2.1l0,4.6c-0.9,0.2 -1.5,0.2 -2,0.2c-1.3,0 -2.3,-0.3 -3.1,-1c-0.7,-0.7 -1.1,-1.6 -1.2,-2.7l-0.2,-3.1c-1.8,2.4 -4.1,4.2 -6.9,5.5c-2.4,1.4 -5.4,2 -8.6,2Zm1.2,-3.9c2.7,0 5.1,-0.5 7.4,-1.5c2.2,-1 4,-2.4 5.1,-4c0.5,-0.5 0.8,-0.9 1,-1.5c0.2,-0.5 0.3,-1 0.3,-1.5l0,-6.4c-1.7,-0.7 -3.5,-1.2 -5.3,-1.5c-1.8,-0.4 -3.7,-0.5 -5.7,-0.5c-3.6,0 -6.6,0.8 -8.9,2.3c-2.3,1.5 -3.4,3.5 -3.4,6c0,1.2 0.2,2.4 0.7,3.4c0.5,1.1 1.1,2 2,2.8c0.8,0.8 1.8,1.4 3,1.9c1.3,0.3 2.5,0.5 3.8,0.5Z" style="fill:#20273a;fill-rule:nonzero;"/><path d="M487.4,110.884c-3.5,0.1 -6.5,1.1 -9.1,2.9c-2.6,1.8 -4.4,4.3 -5.5,7.5l0,24.6l-5.2,0l0,-39.5l4.9,0l0,9.5c1.5,-3 3.4,-5.4 5.9,-7.1c2.5,-1.7 5.1,-2.6 8,-2.6c0.4,0 0.7,0 1,0.1l0,4.6Z" style="fill:#20273a;fill-rule:nonzero;"/><path d="M525.7,146.584c-3.1,0 -6.1,-0.5 -9,-1.5c-2.9,-1 -5.5,-2.5 -7.6,-4.4l2.4,-3.5c2.2,1.8 4.5,3.2 6.8,4.1c2.3,0.9 4.8,1.4 7.4,1.4c3.2,0 5.7,-0.6 7.6,-1.9c1.9,-1.3 2.8,-3.1 2.8,-5.5c0,-1.1 -0.3,-2 -0.8,-2.8c-0.5,-0.7 -1.3,-1.4 -2.2,-1.9c-1,-0.6 -2.2,-1 -3.7,-1.5c-1.5,-0.4 -3.2,-0.9 -5.2,-1.3c-2.3,-0.6 -4.2,-1.1 -5.9,-1.7c-1.7,-0.6 -3,-1.2 -4.1,-1.9c-1.1,-0.7 -1.9,-1.6 -2.4,-2.6c-0.5,-1 -0.8,-2.3 -0.8,-3.9c0,-2 0.4,-3.7 1.2,-5.2c0.8,-1.5 1.8,-2.8 3.2,-3.8c1.3,-1 2.9,-1.7 4.7,-2.2c1.8,-0.5 3.7,-0.8 5.7,-0.8c3,0 5.8,0.5 8.3,1.5c2.5,1 4.5,2.3 6,3.9l-2.5,3c-1.5,-1.5 -3.2,-2.7 -5.3,-3.4c-2.1,-0.8 -4.3,-1.1 -6.6,-1.1c-1.4,0 -2.6,0.1 -3.8,0.4c-1.2,0.3 -2.2,0.7 -3.1,1.3c-0.9,0.6 -1.6,1.4 -2.1,2.3c-0.5,0.9 -0.8,2 -0.8,3.3c0,1.1 0.2,1.9 0.5,2.6c0.4,0.7 0.9,1.2 1.7,1.7c0.8,0.5 1.8,0.9 3.1,1.3c1.2,0.4 2.7,0.8 4.5,1.2c2.5,0.6 4.8,1.2 6.7,1.8c1.9,0.6 3.5,1.3 4.8,2.1c1.3,0.8 2.3,1.8 2.9,3c0.7,1.2 1,2.6 1,4.2c0,3.6 -1.4,6.5 -4.2,8.6c-2.8,2.2 -6.5,3.2 -11.2,3.2Z" style="fill:#20273a;fill-rule:nonzero;"/><path d="M574.1,146.584c-2.9,0 -5.5,-0.5 -7.9,-1.6c-2.4,-1.1 -4.5,-2.6 -6.3,-4.5c-1.8,-1.9 -3.1,-4.1 -4.1,-6.6c-1,-2.5 -1.5,-5.1 -1.5,-8c0,-2.8 0.5,-5.4 1.5,-7.9c1,-2.5 2.4,-4.6 4.1,-6.4c1.7,-1.8 3.8,-3.3 6.3,-4.4c2.4,-1.1 5.1,-1.6 7.9,-1.6c2.9,0 5.5,0.5 7.9,1.6c2.4,1.1 4.5,2.6 6.2,4.4c1.7,1.9 3.1,4 4,6.4c1,2.4 1.4,5 1.4,7.7c0,0.4 0,0.8 0,1.2c0,0.4 0,0.7 -0.1,0.8l-33.8,0c0.2,2.1 0.6,4.1 1.5,5.9c0.8,1.8 1.9,3.4 3.2,4.7c1.3,1.3 2.8,2.3 4.5,3.1c1.7,0.7 3.5,1.1 5.4,1.1c1.3,0 2.5,-0.2 3.8,-0.5c1.3,-0.4 2.4,-0.8 3.5,-1.4c1.1,-0.6 2,-1.4 2.9,-2.2c0.9,-0.9 1.5,-1.9 2,-2.9l4.5,1.2c-0.6,1.5 -1.5,2.8 -2.6,4c-1.1,1.2 -2.4,2.2 -3.9,3.1c-1.5,0.9 -3.1,1.6 -4.9,2c-1.7,0.6 -3.5,0.8 -5.5,0.8Zm14.6,-22.6c-0.2,-2.1 -0.6,-4.1 -1.5,-5.8c-0.8,-1.7 -1.9,-3.2 -3.2,-4.5c-1.3,-1.3 -2.8,-2.2 -4.5,-3c-1.7,-0.7 -3.5,-1.1 -5.4,-1.1c-1.9,0 -3.7,0.4 -5.5,1.1c-1.7,0.7 -3.2,1.7 -4.5,3c-1.3,1.3 -2.3,2.8 -3.1,4.6c-0.8,1.8 -1.3,3.7 -1.4,5.8l29.1,0l0,-0.1Z" style="fill:#20273a;fill-rule:nonzero;"/><path d="M619.1,146.584c-1.9,0 -3.6,-0.3 -5.2,-0.9c-1.6,-0.6 -3,-1.5 -4.2,-2.6c-1.2,-1.1 -2.1,-2.4 -2.8,-3.9c-0.7,-1.5 -1,-3.1 -1,-4.8c0,-1.7 0.4,-3.3 1.2,-4.8c0.8,-1.5 1.9,-2.7 3.4,-3.8c1.5,-1.1 3.2,-1.9 5.2,-2.5c2,-0.6 4.2,-0.9 6.7,-0.9c2,0 4.1,0.2 6.1,0.5c2.1,0.4 3.9,0.9 5.5,1.5l0,-3.6c0,-3.5 -1,-6.3 -3,-8.3c-2,-2 -4.7,-3.1 -8.2,-3.1c-2,0 -4.1,0.4 -6.2,1.2c-2.1,0.8 -4.3,2 -6.4,3.5l-1.6,-3.3c5.1,-3.4 10.1,-5.2 14.9,-5.2c5,0 8.8,1.4 11.7,4.2c2.8,2.8 4.2,6.6 4.2,11.5l0,17.8c0,1.4 0.6,2.1 1.9,2.1l0,4.6c-0.9,0.2 -1.5,0.2 -2,0.2c-1.3,0 -2.3,-0.3 -3.1,-1c-0.7,-0.7 -1.1,-1.6 -1.2,-2.7l-0.2,-3.1c-1.8,2.4 -4.1,4.2 -6.9,5.5c-2.6,1.3 -5.6,1.9 -8.8,1.9Zm1.2,-3.9c2.7,0 5.1,-0.5 7.4,-1.5c2.2,-1 4,-2.4 5.1,-4c0.5,-0.5 0.8,-0.9 1,-1.5c0.2,-0.5 0.3,-1 0.3,-1.5l0,-6.4c-1.7,-0.7 -3.5,-1.2 -5.3,-1.5c-1.8,-0.4 -3.7,-0.5 -5.7,-0.5c-3.6,0 -6.6,0.8 -8.9,2.3c-2.3,1.5 -3.4,3.5 -3.4,6c0,1.2 0.2,2.4 0.7,3.4c0.5,1.1 1.1,2 2,2.8c0.8,0.8 1.8,1.4 3,1.9c1.3,0.3 2.5,0.5 3.8,0.5Z" style="fill:#20273a;fill-rule:nonzero;"/><path d="M676.8,143.984c-0.3,0.2 -0.7,0.4 -1.3,0.6c-0.6,0.3 -1.3,0.5 -2,0.8c-0.8,0.3 -1.6,0.5 -2.6,0.7c-1,0.2 -2,0.3 -3,0.3c-1.1,0 -2.2,-0.2 -3.2,-0.5c-1,-0.3 -1.9,-0.8 -2.7,-1.4c-0.8,-0.6 -1.4,-1.4 -1.8,-2.4c-0.5,-1 -0.7,-2.1 -0.7,-3.3l0,-28.3l-5.5,0l0,-4.1l5.5,0l0,-13.4l5.2,0l0,13.4l9.1,0l0,4.1l-9.2,0l0,26.9c0.1,1.5 0.6,2.5 1.6,3.2c0.9,0.7 2,1 3.2,1c1.5,0 2.8,-0.2 3.9,-0.7c1.1,-0.5 1.8,-0.8 2.1,-1l1.4,4.1Z" style="fill:#20273a;fill-rule:nonzero;"/></g></g></svg>