<?xml version="1.0" encoding="UTF-8" standalone="no"?><!DOCTYPE svg PUBLIC "-//W3C//DTD SVG 1.1//EN" "http://www.w3.org/Graphics/SVG/1.1/DTD/svg11.dtd"><svg width="100%" height="100%" viewBox="0 0 317 100" version="1.1" xmlns="http://www.w3.org/2000/svg" xmlns:xlink="http://www.w3.org/1999/xlink" xml:space="preserve" xmlns:serif="http://www.serif.com/" style="fill-rule:evenodd;clip-rule:evenodd;stroke-linejoin:round;stroke-miterlimit:1.41421;"><g><path id="monkey_border_dark" d="M99.773,51.307c1.393,-9.022 0.132,-18.243 -3.848,-26.469c-2.919,-6.037 -7.231,-11.377 -12.505,-15.523c-6.269,-4.909 -13.898,-8.126 -21.792,-9.022c-1.559,-0.166 -3.98,-0.73 -5.307,0.365c-1.094,0.895 -0.332,2.554 0.663,3.217c0.034,0.033 0.067,0.033 0.1,0.067c0.862,0.53 1.924,0.497 2.886,0.63c1.127,0.166 2.288,0.398 3.416,0.696c4.611,1.161 9.055,3.218 12.936,5.938c12.837,8.955 19.072,24.213 15.921,38.841c-0.331,1.592 -1.426,5.771 -2.255,8.292c-5.141,-2.654 -9.553,-4.213 -13.699,-5.407c0.099,-0.099 1.061,-0.762 1.194,-0.862c1.592,-1.26 2.985,-2.753 4.146,-4.445c0.398,0.067 0.796,0.1 1.161,0.1c2.985,0 5.705,-1.824 6.402,-4.644c0.331,-1.393 0.53,-3.648 -1.626,-5.473c-1.094,-0.962 -1.957,-0.696 -1.89,-2.255c0.033,-0.332 0,-1.526 -0.033,-1.791c-0.034,-1.029 -0.199,-2.057 -0.398,-3.085c-0.398,-1.891 -1.062,-3.748 -1.825,-5.539c-0.729,-1.626 -1.559,-3.218 -2.421,-4.743c-0.398,-0.73 -0.896,-1.427 -1.128,-2.223c-0.066,-0.232 -0.597,-2.554 -0.597,-2.554c0,0 -0.663,0.299 -0.995,0.332c-1.924,-0.1 -3.881,-0.63 -5.705,-1.095c-1.493,-0.398 -3.018,-0.796 -4.577,-1.094c-0.199,-0.033 -0.398,-0.067 -0.631,-0.1c-0.199,-0.033 -0.398,-0.066 -0.597,-0.099c-0.431,-0.067 -0.895,-0.133 -1.36,-0.166c-0.165,0 -0.298,-0.033 -0.464,-0.033c-0.166,0 -0.298,-0.034 -0.431,-0.034c-0.464,0 -0.962,0 -1.426,0.034c-0.531,0.033 -2.554,0.431 -2.554,0.431c0,0 -0.299,-0.398 -0.697,-0.763c-0.73,-0.663 -1.526,-1.194 -2.255,-1.493c-2.588,-1.061 -6.269,0 -7.795,2.389c-1.062,1.658 -0.564,3.714 -0.133,5.506c-0.597,0.53 -1.161,1.061 -1.692,1.625c-0.265,-1.028 -0.796,-2.919 -1.127,-3.914c-1.791,-5.539 -4.312,-10.979 -7.596,-15.822c-22.489,5.108 -39.239,25.043 -39.239,48.825c0,27.663 22.654,49.654 50.616,50.086c21.129,0.331 39.902,-14.131 48.261,-34.994c-0.298,-0.431 -1.891,-1.658 -2.123,-1.891c-0.099,-0.099 -0.232,-0.199 -0.331,-0.298c0.033,-0.133 0.099,-0.199 0.099,-0.199c1.559,-3.582 2.62,-7.43 3.251,-11.344Zm-17.646,-6.567c0.365,-1.194 0.729,-2.422 1.127,-3.616c0.233,-0.696 0.631,-2.819 1.427,-2.985c0.199,-0.033 0.398,0 0.564,0.066c0.066,0.033 0.099,0.033 0.165,0.067c0.034,0 0.034,0.033 0.067,0.033c0.033,0 0.033,0.033 0.066,0.033c0.033,0.033 0.066,0.033 0.1,0.066c0.033,0.034 0.066,0.067 0.099,0.1c0.033,0.033 0.1,0.066 0.133,0.099c0.763,0.664 1.426,1.791 1.592,2.389c0.332,1.293 -0.1,2.753 -1.095,3.681c-0.729,0.697 -2.587,1.46 -3.681,0.962c-0.034,-0.033 -0.067,-0.033 -0.133,-0.066c-0.033,-0.033 -0.1,-0.033 -0.133,-0.066c0,0 -0.033,0 -0.033,-0.034c0,0 -0.033,-0.033 -0.066,-0.033l-0.033,-0.033c-0.1,-0.099 -0.166,-0.265 -0.2,-0.398c0,-0.1 0.034,-0.199 0.034,-0.265Zm-10.979,-28.791c0.928,0.431 2.189,0.398 3.184,0.531c1.194,0.165 2.521,0.199 3.682,0.53c0.066,0 0.132,0.033 0.199,0.067c-0.1,0 -0.73,0.265 -0.863,0.265c-0.497,0.099 -1.028,0.133 -1.525,0.133c-1.128,-0.034 -2.289,-0.299 -3.317,-0.796c-0.034,0 -0.1,-0.034 -0.133,-0.067c-0.166,-0.066 -0.332,-0.166 -0.498,-0.232c-0.232,-0.133 -0.497,-0.265 -0.729,-0.431Zm-19.835,-0.1c0.033,-0.729 0.265,-1.492 0.696,-2.089c0.763,-1.029 2.057,-1.659 3.35,-1.559c0.465,0.033 1.36,0.298 2.09,0.763c0.265,0.165 0.497,0.331 0.663,0.497c0.033,0.033 0.067,0.067 0.1,0.1c0,0 0,0.033 0.033,0.033c0.332,0.365 0.497,0.796 0.298,1.26c-0.298,0.73 -2.355,1.46 -3.051,1.825c-0.829,0.431 -2.256,1.426 -3.151,1.459c-0.133,0 -0.232,-0.033 -0.332,-0.066c-0.033,0 -0.066,-0.033 -0.099,-0.067c-0.034,-0.033 -0.067,-0.066 -0.1,-0.099c-0.431,-0.498 -0.497,-1.526 -0.497,-2.057Zm-3.251,13.699c0.896,-1.061 1.924,-2.023 3.085,-2.819c0.464,-0.299 0.928,-0.597 1.426,-0.863c0.232,-0.132 0.498,-0.265 0.763,-0.364l0.033,0c0,0 0.033,0 0.033,-0.034l0.033,0c0,0 0.034,0 0.034,-0.033l0.033,0c0.099,-0.033 0.199,-0.099 0.265,-0.132c0,-0.199 0.033,-0.365 0.066,-0.531c0.1,-0.73 0.299,-1.393 0.597,-2.023c0.1,-0.199 0.199,-0.432 0.332,-0.631c0.232,-0.398 0.498,-0.796 0.796,-1.127c0.166,-0.166 0.299,-0.365 0.465,-0.531c1.857,-1.824 4.61,-2.786 7.23,-2.222c1.858,0.431 3.55,1.625 4.644,3.184c1.161,1.691 1.36,3.383 1.36,5.34l0.1,0c0.066,0.033 0.132,0.099 0.265,0.199c0.066,0.066 0.166,0.166 0.265,0.232c0.033,0.033 0.1,0.1 0.133,0.133c0.099,0.099 0.199,0.199 0.298,0.265c0.034,0.067 0.1,0.1 0.133,0.133c0.232,0.199 0.431,0.398 0.597,0.497c0.067,0.034 0.1,0.067 0.133,0.067l0.166,0c0.033,0 0.066,0 0.099,-0.033c0.067,0 0.1,-0.034 0.166,-0.034l0.133,0c1.459,0 2.753,0 4.146,0.597c0.298,0.133 0.597,0.299 0.895,0.432c0.299,0.166 0.564,0.331 0.83,0.564c1.592,1.194 2.686,2.952 2.985,5.008c0.365,2.587 -0.73,5.539 -2.819,7.231c-0.166,0.133 -0.299,0.232 -0.465,0.332c-0.066,0.033 -0.133,0.066 -0.166,0.132c-0.099,0.067 -0.232,0.133 -0.331,0.199c-0.1,0.067 -0.233,0.133 -0.332,0.166c-0.1,0.067 -0.232,0.1 -0.332,0.166l-0.033,0c-0.099,0.033 -0.232,0.066 -0.332,0.133l-0.033,0c-0.033,0.132 -0.763,5.174 -3.814,7.363c-0.033,0.033 -0.332,0.266 -0.63,0.531c-0.398,0.332 -0.863,0.73 -0.929,0.763c-0.1,0.033 -6.667,-0.63 -9.321,-0.531c-3.549,0.133 -6.501,0.464 -9.917,1.327c-0.1,-0.066 -0.365,-0.365 -0.63,-0.664c-0.233,-0.232 -0.432,-0.464 -0.498,-0.53c-0.332,-0.299 -0.697,-0.63 -0.995,-0.929c-0.133,-0.133 -0.265,-0.265 -0.365,-0.398c-3.649,-4.08 -5.174,-10.017 -3.516,-15.291c0.564,-1.857 1.592,-3.715 2.919,-5.274Zm-32.473,54.431c-0.099,0.232 -0.165,0.431 -0.265,0.663l0,0.033c-0.033,0.033 -0.033,0.067 -0.033,0.067c-0.033,-0.034 -0.066,-0.067 -0.1,-0.1c-0.033,-0.033 -0.033,-0.033 -0.066,-0.066c-0.597,-0.664 -1.128,-1.327 -1.658,-1.99c-0.133,-0.166 -0.299,-0.365 -0.432,-0.531c-0.099,-0.166 -0.232,-0.299 -0.331,-0.431c-0.033,-0.034 -0.067,-0.067 -0.1,-0.133c-0.033,-0.033 -0.066,-0.066 -0.066,-0.1c-2.023,-2.487 -3.748,-5.141 -5.174,-7.96c-0.398,-0.697 -0.797,-1.393 -1.128,-2.156c-1.526,-3.151 -2.82,-6.601 -3.616,-9.984c-2.222,-9.155 -1.758,-19.039 1.427,-27.928c1.161,-3.284 2.653,-6.402 4.477,-9.387c4.346,-7.032 10.449,-12.87 17.613,-16.95c2.985,-1.691 6.17,-2.985 9.453,-3.98c0.199,-0.066 0.432,-0.133 0.631,-0.199c0.165,-0.033 0.298,-0.099 0.464,-0.133c0.332,-0.099 0.663,-0.199 0.995,-0.265c0.332,-0.099 0.896,-0.265 0.896,-0.265l0.066,0.066c0.066,0.066 0.166,0.166 0.265,0.299c5.838,9.585 8.259,18.972 8.259,18.972c-0.199,0.266 -1.094,1.36 -1.26,1.659c-0.066,0.099 -0.133,0.199 -0.199,0.298c-0.166,0.299 -0.332,0.564 -0.564,0.929l-0.166,0.265c-3.416,6.236 -3.648,13.965 -0.696,20.432c0.331,0.73 0.696,1.46 1.094,2.123c0.133,0.233 0.266,0.432 0.432,0.664c0.331,0.564 0.696,1.094 0.895,1.724c0.066,0.2 0.1,0.432 0.166,0.664c0.133,0.597 0.232,1.26 0.298,2.056c0,0.266 0.034,0.564 0,0.863c0,0.265 -0.199,0.796 -0.232,0.796c-0.199,0.066 -0.431,0.166 -0.431,0.166l-0.896,0.331l-0.729,0.299c-0.232,0.066 -0.431,0.166 -0.664,0.265l-0.364,0.166c-3.881,1.625 -7.53,3.748 -10.847,6.269c-0.099,0.066 -0.199,0.133 -0.298,0.232c-0.232,0.166 -0.465,0.332 -0.664,0.531c-0.066,0.033 -0.099,0.099 -0.166,0.133c-0.066,0.066 -0.165,0.132 -0.232,0.199c-0.099,0.066 -0.166,0.132 -0.232,0.199c-0.033,0.033 -0.066,0.066 -0.099,0.099c-0.166,0.133 -0.332,0.265 -0.498,0.398l-0.033,0.033c-0.033,0.033 -0.066,0.067 -0.1,0.1l-0.099,0.099c-0.1,0.067 -0.199,0.166 -0.265,0.233l-0.034,0.033l-0.033,0.033c-0.199,0.166 -0.398,0.332 -0.597,0.497l-0.033,0.034c-0.199,0.165 -0.398,0.364 -0.597,0.53c-0.033,0.033 -0.066,0.067 -0.1,0.1c-4.079,3.748 -7.529,8.126 -10.282,12.936c-0.066,0.132 -0.133,0.265 -0.199,0.365l-0.066,0.132c-0.033,0.1 -0.1,0.199 -0.166,0.299c-0.863,1.592 -1.659,3.25 -2.388,4.975c-0.133,0.033 -0.166,0.166 -0.233,0.299Zm81.165,-19.272c0.033,0.034 0.067,0.067 0.133,0.1c0.265,0.232 0.531,0.497 0.796,0.73c-7.496,18.276 -23.815,29.852 -37.249,32.472c-11.178,2.189 -22.953,0.266 -32.937,-4.942c-0.166,-0.1 -0.332,-0.166 -0.497,-0.265c-0.133,-0.067 -0.266,-0.133 -0.398,-0.233c-0.133,-0.066 -0.266,-0.132 -0.398,-0.232c-6.104,-3.748 -8.525,-5.937 -9.321,-6.733c-0.099,-0.1 -0.166,-0.166 -0.199,-0.199l-0.033,-0.033c-0.033,-0.033 -0.033,-0.067 -0.066,-0.067l0,-0.033c0.033,-0.132 0.099,-0.232 0.132,-0.365c1.592,-4.179 3.649,-8.159 6.17,-11.775c1.857,-2.62 3.947,-5.074 6.302,-7.33c0.398,-0.365 0.796,-0.73 1.194,-1.095c0.398,-0.364 0.829,-0.696 1.227,-1.061c0.166,-0.166 0.365,-0.299 0.531,-0.431c0.365,-0.299 0.73,-0.597 1.094,-0.863c0.365,-0.298 0.763,-0.563 1.128,-0.829c0.199,-0.132 0.398,-0.265 0.564,-0.398c0.398,-0.265 0.763,-0.531 1.161,-0.763c0.199,-0.132 0.398,-0.265 0.597,-0.365c1.99,-1.26 4.047,-2.355 6.169,-3.316c2.753,-1.228 5.639,-2.223 8.591,-2.953c1.393,-0.331 2.786,-0.597 4.18,-0.796c0.232,-0.033 0.464,-0.066 0.696,-0.099c0.464,-0.066 0.929,-0.1 1.393,-0.166c0.63,-0.066 1.261,-0.133 1.858,-0.166c0.132,0 0.265,0 0.398,-0.033c1.194,-0.066 2.421,-0.099 3.615,-0.066c0.332,0 0.664,0.033 0.995,0.033l1.095,0c0.298,0 0.63,0.033 0.929,0.033c0.199,0 0.398,0.033 0.63,0.033c0.265,0 0.53,0.033 0.796,0.067c0.166,0 0.331,0.033 0.497,0.033c0.432,0.033 0.83,0.066 1.261,0.132c1.426,0.166 2.852,0.398 4.279,0.664c1.028,0.199 2.056,0.464 3.084,0.729c0.332,0.1 0.664,0.2 1.029,0.299c0.995,0.299 2.023,0.63 3.018,0.995c0.663,0.232 1.327,0.498 1.957,0.763c0.332,0.133 0.663,0.265 0.962,0.431c0.331,0.133 0.63,0.299 0.962,0.431c0.265,0.133 0.53,0.233 0.763,0.365c0.099,0.033 0.232,0.1 0.331,0.166c0.266,0.133 0.531,0.265 0.796,0.398c0.631,0.332 1.261,0.663 1.858,0.995c0.298,0.166 0.597,0.365 0.929,0.531c0.597,0.365 1.194,0.73 1.791,1.128c1.459,0.962 2.885,2.023 4.245,3.184c0.299,0.332 0.631,0.63 0.962,0.895Z" style="fill:#20273a;fill-rule:nonzero;"/><path id="monkey_face" d="M80.568,34.922c-0.299,-2.024 -1.393,-3.782 -2.986,-5.009c-0.265,-0.199 -0.53,-0.398 -0.829,-0.564c-0.298,-0.166 -0.597,-0.298 -0.895,-0.431c-1.393,-0.597 -2.654,-0.597 -4.146,-0.597l-0.067,0l-0.033,0l-0.033,0c-0.066,0 -0.1,0.033 -0.166,0.033c-0.033,0 -0.066,0 -0.099,0.033c-0.034,0 -0.067,0 -0.1,0l-0.033,0l-0.033,0c-0.033,0 -0.1,-0.033 -0.133,-0.066c-0.166,-0.1 -0.398,-0.299 -0.597,-0.498c-0.066,-0.033 -0.1,-0.099 -0.133,-0.132c-0.099,-0.1 -0.199,-0.199 -0.298,-0.266c-0.067,-0.033 -0.1,-0.099 -0.133,-0.132c-0.099,-0.1 -0.166,-0.166 -0.265,-0.232c-0.1,-0.1 -0.199,-0.166 -0.266,-0.2l-0.033,0l-0.033,0l-0.033,0c0,-1.956 -0.199,-3.648 -1.36,-5.34c-1.095,-1.592 -2.786,-2.786 -4.644,-3.184c-2.62,-0.564 -5.373,0.365 -7.231,2.222c-0.165,0.166 -0.331,0.332 -0.464,0.531c-0.298,0.365 -0.564,0.73 -0.796,1.128c-0.1,0.199 -0.232,0.398 -0.332,0.63c-0.298,0.63 -0.497,1.327 -0.597,2.023c-0.033,0.166 -0.066,0.365 -0.066,0.531c-0.1,0.066 -0.166,0.1 -0.265,0.133l-0.034,0l-0.033,0.033l-0.033,0c-0.033,0 -0.033,0 -0.033,0.033l-0.033,0c-0.266,0.1 -0.498,0.232 -0.763,0.365c-0.498,0.265 -0.962,0.564 -1.426,0.862c-1.128,0.796 -2.19,1.758 -3.085,2.82c-1.327,1.592 -2.355,3.416 -2.985,5.373c-1.659,5.274 -0.166,11.211 3.516,15.291c0.132,0.133 0.265,0.265 0.364,0.398c0.332,0.332 0.664,0.63 0.995,0.929c0.067,0.066 0.266,0.298 0.498,0.531c0.265,0.298 0.531,0.597 0.63,0.663c3.417,-0.896 6.369,-1.227 9.918,-1.327c2.686,-0.099 9.254,0.597 9.32,0.531c0.067,-0.033 0.531,-0.431 0.929,-0.763c0.299,-0.265 0.597,-0.498 0.63,-0.531c3.019,-2.189 3.782,-7.231 3.815,-7.363l0.033,0c0.033,0 0,0 0,0c0.133,-0.033 0.232,-0.067 0.332,-0.133l0.033,0c0.132,-0.033 0.232,-0.099 0.331,-0.166c0.1,-0.066 0.233,-0.099 0.332,-0.166c0.1,-0.066 0.232,-0.132 0.332,-0.199c0.066,-0.033 0.132,-0.066 0.166,-0.132c0.165,-0.1 0.298,-0.233 0.464,-0.332c2.156,-1.758 3.251,-4.743 2.886,-7.33Zm-18.409,-3.483l-0.763,0.033c0,0 -0.265,-3.052 -3.715,-3.118c-0.066,0 -0.133,0 -0.166,0l-0.033,-0.365l-0.033,-0.398c0.464,0 0.895,-0.033 1.327,0.067c0.862,0.165 1.724,0.663 2.321,1.293c0.531,0.63 1.062,1.592 1.062,2.488Zm9.387,8.723l-0.465,0.067c0,0 0,-0.034 0,-0.067c0,0 -0.431,-2.819 -3.648,-3.118c-0.067,0 -0.199,0 -0.232,0l-0.034,-0.364l-0.033,-0.398c0.232,-0.034 0.465,-0.034 0.697,0c1.857,0.132 3.516,1.492 3.947,3.316c0.033,0.166 0.099,0.531 0.099,0.531l-0.331,0.033Z" style="fill:#e5e5e5;fill-rule:nonzero;"/><path id="mouth" d="M69.357,47.46c-0.398,0.232 -0.896,0.298 -1.36,0.298c-1.029,-0.033 -2.024,-0.066 -3.019,-0.298c-0.962,-0.2 -1.957,-0.498 -2.885,-0.863c-2.588,-1.028 -4.976,-2.62 -6.9,-4.644l-0.033,-0.033c-1.028,-1.094 -1.957,-2.255 -2.72,-3.516c-0.398,-0.63 -0.763,-1.293 -1.061,-1.99c-0.431,-0.962 -0.697,-1.857 -0.829,-2.919c-0.067,-0.53 -0.133,-1.094 0.199,-1.559c0.331,-0.464 0.365,0.432 0.398,0.631c0.066,0.265 0.099,0.53 0.166,0.829c0.696,2.852 2.056,5.506 4.013,7.695c1.858,2.09 4.246,3.715 6.833,4.71c2.123,0.829 4.378,1.227 6.634,1.194c0.199,0 0.63,-0.099 0.763,0.066c0.165,0.199 -0.067,0.332 -0.199,0.399Z" style="fill:#273940;fill-rule:nonzero;"/><g id="eyes"><path d="M71.811,40.129l-0.298,0.033l-0.465,0.067c0,0 0,-0.034 0,-0.067c0,0 -0.431,-2.819 -3.648,-3.118c-0.067,0 -0.199,0 -0.233,0l-0.033,-0.364l-0.033,-0.398c0.232,-0.034 0.464,-0.034 0.697,0c1.857,0.132 3.516,1.492 3.947,3.316c0.033,0.166 0.066,0.531 0.066,0.531Z" style="fill:#273940;fill-rule:nonzero;"/><path d="M62.159,31.406l-0.763,0.066c0,0 -0.265,-3.052 -3.715,-3.118c-0.066,0 -0.133,0 -0.166,0l-0.033,-0.365l-0.033,-0.398c0.464,0 0.895,-0.033 1.327,0.067c0.862,0.165 1.724,0.663 2.321,1.293c0.531,0.63 1.062,1.592 1.062,2.455Z" style="fill:#273940;fill-rule:nonzero;"/></g><g id="Leaves"><path d="M98.015,65.802c-1.228,3.516 -3.085,6.833 -4.976,9.951c-7.231,11.443 -19.138,19.868 -32.572,22.488c-11.178,2.19 -22.953,0.266 -32.937,-4.942c-0.166,-0.099 -0.331,-0.166 -0.497,-0.265c-0.133,-0.067 -0.266,-0.133 -0.398,-0.199c-0.133,-0.067 -0.266,-0.133 -0.398,-0.232c-1.858,-1.029 -3.815,-2.057 -5.539,-3.317c-0.83,-0.63 -3.948,-3.317 -3.948,-3.317c0.034,-0.1 0.067,-0.166 0.1,-0.266c14.362,-35.59 53.767,-40.499 78.876,-21.792c0.431,0.299 0.829,0.631 1.227,0.929c0.332,0.232 0.796,0.697 1.062,0.962Z" style="fill:#34a448;fill-rule:nonzero;"/><path d="M47.2,54.193c-4.943,1.691 -9.918,4.113 -14.23,7.297c-0.099,0.066 -0.199,0.133 -0.298,0.232c-0.365,0.266 -0.73,0.564 -1.095,0.829c-0.1,0.067 -0.166,0.133 -0.232,0.199c-0.033,0.034 -0.067,0.067 -0.1,0.1c-0.796,0.663 -1.559,1.327 -2.322,2.056c-2.587,2.488 -4.975,5.175 -7.098,8.061c-2.156,2.985 -3.947,6.235 -5.473,9.552c-0.199,0.465 -0.398,0.896 -0.63,1.36c-0.066,0.166 -0.398,0.796 -0.431,0.896c-0.033,-0.033 -0.066,-0.067 -0.1,-0.1c-0.033,-0.033 -0.033,-0.033 -0.066,-0.066c-0.232,-0.299 -0.464,-0.697 -0.464,-0.697c-28.658,-39.139 -2.488,-73.569 20.963,-80.866c0.199,-0.066 0.431,-0.133 0.63,-0.199c0.132,-0.033 1.691,-0.464 2.255,-0.63c0.133,-0.033 0.199,-0.066 0.199,-0.066c0,0 0.995,1.691 1.526,2.587c0.299,0.497 0.63,1.061 0.995,1.691c0.033,0.067 0.067,0.133 0.133,0.233l0.033,0.033c0,0.033 0.033,0.033 0.033,0.066c1.194,2.156 2.289,4.412 3.251,6.7c0.597,1.393 1.128,2.853 1.592,4.279c0.431,1.327 0.829,2.654 1.161,3.98c-0.498,0.597 -0.962,1.228 -1.393,1.891c-3.549,5.307 -4.478,12.239 -2.587,18.342c0.431,1.36 0.995,2.654 1.658,3.914c0.697,1.294 1.625,2.389 2.488,3.583c0.232,0.232 -0.332,4.511 -0.398,4.743Z" style="fill:#34a448;fill-rule:nonzero;"/></g><g id="shades"><path d="M38.542,2.217c-0.563,0.166 -2.122,0.597 -2.255,0.63c-0.199,0.066 -0.431,0.133 -0.63,0.199c-23.451,7.297 -49.621,41.727 -20.963,80.866c0,0 0.232,0.398 0.464,0.697c-0.597,-0.664 -1.127,-1.327 -1.658,-1.99c-0.133,-0.166 -0.299,-0.365 -0.431,-0.531c-0.1,-0.166 -0.233,-0.298 -0.332,-0.431c-0.033,-0.033 -0.066,-0.067 -0.1,-0.133c-0.033,-0.033 -0.066,-0.066 -0.066,-0.099c-2.023,-2.488 -3.748,-5.142 -5.174,-7.961c-0.398,-0.696 -0.796,-1.393 -1.128,-2.156c-1.526,-3.151 -2.819,-6.601 -3.615,-9.984c-2.223,-9.154 -1.758,-19.039 1.426,-27.928c1.161,-3.284 2.653,-6.402 4.478,-9.387c4.345,-7.032 10.448,-12.87 17.612,-16.949c2.986,-1.692 6.17,-2.986 9.454,-3.981c0.199,-0.066 0.431,-0.132 0.63,-0.199c0.166,-0.033 0.298,-0.099 0.464,-0.132c0.332,-0.1 0.664,-0.199 0.995,-0.266c0.232,-0.132 0.796,-0.298 0.829,-0.265Z" style="fill:#fff;fill-rule:nonzero;"/><path d="M95.759,63.878c-25.142,-18.707 -64.547,-13.831 -78.876,21.792c-0.099,-0.099 -0.166,-0.166 -0.199,-0.199c0,-0.033 -0.033,-0.033 -0.033,-0.033c-0.033,-0.033 -0.033,-0.066 -0.066,-0.066l0,-0.033c0.033,-0.133 0.099,-0.233 0.132,-0.365c1.592,-4.18 3.649,-8.16 6.17,-11.775c1.857,-2.621 3.947,-5.075 6.302,-7.331c0.398,-0.365 0.796,-0.729 1.194,-1.094c0.398,-0.365 0.829,-0.697 1.227,-1.062c0.166,-0.165 0.365,-0.298 0.531,-0.431c0.365,-0.298 0.73,-0.597 1.094,-0.862c0.365,-0.299 0.763,-0.564 1.128,-0.829c0.199,-0.133 0.398,-0.266 0.564,-0.398c0.398,-0.266 0.763,-0.531 1.161,-0.763c0.199,-0.133 0.398,-0.266 0.597,-0.365c1.99,-1.261 4.047,-2.355 6.169,-3.317c2.753,-1.227 5.639,-2.222 8.591,-2.952c1.393,-0.332 2.786,-0.597 4.18,-0.796c0.232,-0.033 0.464,-0.067 0.696,-0.1c0.464,-0.066 0.929,-0.099 1.393,-0.166c0.63,-0.066 1.261,-0.132 1.858,-0.165c0.132,0 0.265,0 0.398,-0.034c1.194,-0.066 2.421,-0.099 3.615,-0.066c0.332,0 0.664,0.033 0.995,0.033l1.095,0c1.36,0.033 2.753,0.133 4.113,0.299c1.426,0.166 2.852,0.398 4.279,0.663c1.028,0.199 2.056,0.464 3.084,0.73c0.332,0.099 0.664,0.199 1.029,0.298c0.995,0.299 2.023,0.631 3.018,0.995c0.663,0.233 1.327,0.498 1.957,0.763c1.293,0.531 2.587,1.128 3.848,1.791c0.63,0.332 1.26,0.664 1.857,0.996c0.299,0.165 0.597,0.364 0.929,0.53c0.597,0.365 1.194,0.73 1.791,1.128c1.426,0.962 2.819,2.023 4.179,3.184Z" style="fill:#fff;fill-rule:nonzero;"/><path d="M78.213,17.077c-0.1,0 -0.73,0.265 -0.863,0.265c-0.497,0.099 -1.028,0.133 -1.525,0.133c-1.128,-0.034 -2.289,-0.299 -3.317,-0.796c-0.034,0 -0.1,-0.034 -0.133,-0.067c-0.166,-0.066 -0.332,-0.166 -0.498,-0.232c-0.232,-0.133 -0.497,-0.265 -0.762,-0.398l0.033,0c0.928,0.431 2.189,0.398 3.184,0.531c1.194,0.166 2.521,0.199 3.682,0.53c0.066,-0.033 0.132,0 0.199,0.034Z" style="fill:#fff;fill-rule:nonzero;"/></g><g id="ears"><path d="M86.372,44.673c-0.729,0.697 -2.587,1.46 -3.681,0.962c-0.067,-0.033 -0.166,-0.099 -0.233,-0.132c-0.033,-0.034 -0.099,-0.067 -0.132,-0.1c-0.1,-0.099 -0.166,-0.265 -0.199,-0.398c0,-0.1 0,-0.166 0.033,-0.265c0.365,-1.194 0.73,-2.422 1.128,-3.616c0.232,-0.696 0.63,-2.819 1.426,-2.985c0.199,-0.033 0.398,0 0.564,0.066c0.199,0.1 0.431,0.233 0.63,0.398c0.763,0.664 1.426,1.791 1.592,2.389c0.265,1.326 -0.133,2.753 -1.128,3.681Z" style="fill:#e5e5e5;fill-rule:nonzero;"/><path d="M58.577,14.788c-0.299,0.73 -2.355,1.459 -3.052,1.824c-0.829,0.431 -2.255,1.427 -3.151,1.46c-0.133,0 -0.232,-0.033 -0.332,-0.067c-0.033,0 -0.066,-0.033 -0.099,-0.066c-0.033,-0.033 -0.067,-0.066 -0.1,-0.099c-0.464,-0.432 -0.53,-1.46 -0.497,-2.024c0.033,-0.73 0.265,-1.492 0.696,-2.089c0.763,-1.029 2.057,-1.659 3.35,-1.559c0.465,0.033 1.36,0.298 2.09,0.762c0.265,0.166 0.498,0.332 0.663,0.498c0.034,0.033 0.067,0.066 0.1,0.1c0,0 0,0.033 0.033,0.033c0.365,0.365 0.498,0.796 0.299,1.227Z" style="fill:#e5e5e5;fill-rule:nonzero;"/></g><g><g id="jungle_text"><path d="M133.054,77.282c0,1.782 -0.198,3.431 -0.594,4.949c-0.396,1.517 -1.056,2.903 -2.045,4.025c-0.99,1.121 -2.31,2.045 -3.959,2.705c-1.65,0.659 -3.761,0.989 -6.334,0.989c-2.309,0 -4.355,-0.264 -6.004,-0.857c-1.65,-0.594 -3.101,-1.254 -4.157,-1.98l2.705,-6.202c0.99,0.594 2.046,1.122 3.167,1.518c1.122,0.462 2.376,0.66 3.695,0.66c1.98,0 3.365,-0.462 4.223,-1.452c0.858,-0.99 1.319,-2.573 1.319,-4.816l0,-23.291l8.05,0l0,23.752l-0.066,0Z" style="fill:#20273a;fill-rule:nonzero;"/><path d="M156.806,90.016c-2.507,0 -4.684,-0.33 -6.466,-1.055c-1.847,-0.726 -3.299,-1.65 -4.486,-2.903c-1.188,-1.254 -2.046,-2.772 -2.639,-4.487c-0.594,-1.715 -0.858,-3.629 -0.858,-5.74l0,-22.169l8.049,0l0,21.509c0,1.452 0.132,2.639 0.462,3.695c0.33,0.99 0.792,1.847 1.32,2.441c0.594,0.66 1.253,1.122 2.045,1.386c0.792,0.264 1.716,0.396 2.639,0.396c1.98,0 3.563,-0.594 4.751,-1.782c1.187,-1.188 1.847,-3.233 1.847,-6.136l0,-21.509l8.05,0l0,22.169c0,2.111 -0.264,4.025 -0.858,5.74c-0.594,1.781 -1.452,3.233 -2.705,4.487c-1.188,1.253 -2.705,2.243 -4.553,2.903c-1.913,0.725 -4.09,1.055 -6.598,1.055Z" style="fill:#20273a;fill-rule:nonzero;"/><path d="M205.235,89.291c-2.309,-4.091 -4.816,-8.116 -7.456,-12.075c-2.705,-3.958 -5.542,-7.719 -8.577,-11.282l0,23.357l-7.917,0l0,-35.695l6.532,0c1.121,1.122 2.375,2.507 3.76,4.157c1.386,1.649 2.771,3.43 4.223,5.278c1.452,1.847 2.837,3.827 4.223,5.806c1.385,1.979 2.705,3.959 3.958,5.806l0,-21.047l7.984,0l0,35.695l-6.73,0Z" style="fill:#20273a;fill-rule:nonzero;"/><path d="M239.676,59.798c-3.761,0 -6.466,1.056 -8.115,3.101c-1.65,2.045 -2.508,4.948 -2.508,8.511c0,1.782 0.198,3.365 0.594,4.751c0.396,1.451 1.056,2.639 1.848,3.695c0.791,1.055 1.847,1.847 3.101,2.375c1.253,0.594 2.705,0.858 4.354,0.858c0.924,0 1.65,0 2.31,-0.066c0.659,-0.066 1.187,-0.132 1.649,-0.198l0,-12.404l8.05,0l0,17.682c-0.99,0.396 -2.508,0.792 -4.619,1.188c-2.111,0.461 -4.751,0.659 -7.852,0.659c-2.705,0 -5.08,-0.396 -7.257,-1.253c-2.178,-0.792 -4.025,-2.046 -5.608,-3.629c-1.518,-1.584 -2.706,-3.497 -3.563,-5.806c-0.858,-2.31 -1.254,-4.949 -1.254,-7.852c0,-2.969 0.462,-5.608 1.386,-7.917c0.923,-2.31 2.177,-4.223 3.826,-5.872c1.584,-1.584 3.497,-2.838 5.675,-3.629c2.177,-0.792 4.486,-1.254 6.993,-1.254c1.65,0 3.233,0.132 4.553,0.33c1.386,0.198 2.507,0.462 3.497,0.792c0.99,0.264 1.781,0.594 2.441,0.923c0.66,0.33 1.122,0.528 1.386,0.726l-2.31,6.466c-1.121,-0.594 -2.375,-1.121 -3.76,-1.517c-1.584,-0.462 -3.167,-0.66 -4.817,-0.66Z" style="fill:#20273a;fill-rule:nonzero;"/><path d="M284.344,82.429l0,6.928l-23.885,0l0,-35.695l8.05,0l0,28.767l15.835,0Z" style="fill:#20273a;fill-rule:nonzero;"/><path d="M291.536,89.291l0,-35.695l24.082,0l0,6.73l-16.033,0l0,6.994l14.252,0l0,6.597l-14.252,0l0,8.578l17.221,0l0,6.73l-25.27,0l0,0.066Z" style="fill:#20273a;fill-rule:nonzero;"/></g><g id="car_seat_text"><path d="M110.819,31.757c0,-1.848 0.33,-3.563 0.924,-5.213c0.659,-1.649 1.517,-3.035 2.705,-4.288c1.121,-1.188 2.507,-2.178 4.156,-2.903c1.584,-0.726 3.365,-1.056 5.279,-1.056c2.441,0 4.618,0.528 6.466,1.65c1.847,1.121 3.233,2.639 4.156,4.552l-3.299,1.056c-0.725,-1.32 -1.781,-2.376 -3.101,-3.101c-1.319,-0.726 -2.771,-1.122 -4.354,-1.122c-1.32,0 -2.573,0.264 -3.761,0.792c-1.122,0.528 -2.177,1.253 -3.035,2.177c-0.858,0.924 -1.518,1.98 -1.979,3.299c-0.462,1.254 -0.726,2.639 -0.726,4.157c0,1.451 0.264,2.837 0.726,4.156c0.527,1.32 1.187,2.442 2.045,3.365c0.858,0.924 1.847,1.716 3.035,2.244c1.122,0.528 2.375,0.857 3.695,0.857c0.858,0 1.649,-0.132 2.507,-0.329c0.792,-0.264 1.584,-0.528 2.309,-0.99c0.726,-0.396 1.32,-0.924 1.782,-1.452c0.528,-0.528 0.857,-1.121 1.055,-1.715l3.365,0.99c-0.396,0.923 -0.923,1.781 -1.583,2.573c-0.726,0.791 -1.518,1.451 -2.507,2.045c-0.924,0.594 -1.98,1.056 -3.167,1.32c-1.122,0.33 -2.376,0.461 -3.563,0.461c-1.914,0 -3.629,-0.329 -5.279,-1.055c-1.583,-0.726 -2.969,-1.716 -4.156,-2.969c-1.188,-1.254 -2.046,-2.705 -2.705,-4.355c-0.66,-1.517 -0.99,-3.299 -0.99,-5.146Z" style="fill:#20273a;fill-rule:nonzero;"/><path d="M151.66,45.348c-1.254,0 -2.375,-0.197 -3.431,-0.593c-1.056,-0.396 -1.979,-0.99 -2.771,-1.716c-0.792,-0.726 -1.386,-1.583 -1.847,-2.573c-0.462,-0.99 -0.66,-2.045 -0.66,-3.167c0,-1.122 0.264,-2.177 0.791,-3.167c0.528,-0.99 1.254,-1.781 2.244,-2.507c0.989,-0.726 2.111,-1.254 3.431,-1.65c1.319,-0.396 2.771,-0.593 4.42,-0.593c1.32,0 2.705,0.131 4.025,0.329c1.386,0.264 2.573,0.594 3.629,0.99l0,-2.375c0,-2.309 -0.66,-4.157 -1.98,-5.476c-1.319,-1.32 -3.101,-2.046 -5.41,-2.046c-1.319,0 -2.705,0.264 -4.091,0.792c-1.385,0.528 -2.837,1.32 -4.222,2.309l-1.188,-2.243c3.365,-2.243 6.664,-3.431 9.831,-3.431c3.299,0 5.806,0.924 7.72,2.771c1.847,1.848 2.771,4.355 2.771,7.588l0,11.744c0,0.924 0.396,1.386 1.253,1.386l0,3.035c-0.593,0.132 -0.989,0.132 -1.319,0.132c-0.858,0 -1.518,-0.198 -2.046,-0.66c-0.461,-0.462 -0.725,-1.056 -0.791,-1.782l-0.132,-2.045c-1.188,1.584 -2.705,2.771 -4.553,3.629c-1.583,0.924 -3.563,1.319 -5.674,1.319Zm0.792,-2.573c1.781,0 3.365,-0.33 4.882,-0.989c1.452,-0.66 2.639,-1.584 3.365,-2.64c0.33,-0.329 0.528,-0.593 0.66,-0.989c0.132,-0.33 0.198,-0.66 0.198,-0.99l0,-4.223c-1.122,-0.461 -2.309,-0.791 -3.497,-0.989c-1.188,-0.264 -2.441,-0.33 -3.761,-0.33c-2.375,0 -4.354,0.528 -5.872,1.517c-1.518,0.99 -2.243,2.31 -2.243,3.959c0,0.792 0.132,1.584 0.462,2.243c0.329,0.726 0.725,1.32 1.319,1.848c0.528,0.528 1.188,0.923 1.98,1.253c0.857,0.198 1.649,0.33 2.507,0.33Z" style="fill:#20273a;fill-rule:nonzero;"/><path d="M190.39,21.794c-2.31,0.066 -4.289,0.726 -6.004,1.913c-1.716,1.188 -2.903,2.837 -3.629,4.949l0,16.231l-3.431,0l0,-26.062l3.233,0l0,6.268c0.989,-1.979 2.243,-3.563 3.893,-4.685c1.649,-1.121 3.365,-1.715 5.278,-1.715c0.264,0 0.462,0 0.66,0.066l0,3.035Z" style="fill:#20273a;fill-rule:nonzero;"/><path d="M215.66,45.348c-2.046,0 -4.025,-0.329 -5.938,-0.989c-1.914,-0.66 -3.629,-1.65 -5.015,-2.903l1.584,-2.31c1.451,1.188 2.969,2.112 4.486,2.706c1.518,0.593 3.167,0.923 4.883,0.923c2.111,0 3.76,-0.396 5.014,-1.253c1.254,-0.858 1.848,-2.046 1.848,-3.629c0,-0.726 -0.198,-1.32 -0.528,-1.848c-0.33,-0.461 -0.858,-0.923 -1.452,-1.253c-0.66,-0.396 -1.451,-0.66 -2.441,-0.99c-0.99,-0.264 -2.111,-0.594 -3.431,-0.858c-1.518,-0.395 -2.771,-0.725 -3.893,-1.121c-1.121,-0.396 -1.979,-0.792 -2.705,-1.254c-0.726,-0.462 -1.254,-1.056 -1.583,-1.715c-0.33,-0.66 -0.528,-1.518 -0.528,-2.573c0,-1.32 0.264,-2.442 0.792,-3.431c0.527,-0.99 1.187,-1.848 2.111,-2.508c0.858,-0.659 1.913,-1.121 3.101,-1.451c1.187,-0.33 2.441,-0.528 3.761,-0.528c1.979,0 3.826,0.33 5.476,0.99c1.649,0.66 2.969,1.517 3.959,2.573l-1.65,1.979c-0.989,-0.989 -2.111,-1.781 -3.497,-2.243c-1.385,-0.528 -2.837,-0.726 -4.354,-0.726c-0.924,0 -1.716,0.066 -2.508,0.264c-0.791,0.198 -1.451,0.462 -2.045,0.858c-0.594,0.396 -1.056,0.924 -1.385,1.517c-0.33,0.594 -0.528,1.32 -0.528,2.178c0,0.725 0.132,1.253 0.33,1.715c0.264,0.462 0.593,0.792 1.121,1.122c0.528,0.33 1.188,0.594 2.046,0.858c0.791,0.263 1.781,0.527 2.969,0.791c1.649,0.396 3.167,0.792 4.42,1.188c1.254,0.396 2.31,0.858 3.167,1.385c0.858,0.528 1.518,1.188 1.914,1.98c0.462,0.792 0.659,1.715 0.659,2.771c0,2.375 -0.923,4.289 -2.771,5.674c-1.847,1.452 -4.288,2.111 -7.389,2.111Z" style="fill:#20273a;fill-rule:nonzero;"/><path d="M247.594,45.348c-1.914,0 -3.629,-0.329 -5.213,-1.055c-1.583,-0.726 -2.969,-1.716 -4.156,-2.969c-1.188,-1.254 -2.046,-2.705 -2.706,-4.355c-0.659,-1.649 -0.989,-3.365 -0.989,-5.278c0,-1.848 0.33,-3.563 0.989,-5.213c0.66,-1.649 1.584,-3.035 2.706,-4.222c1.121,-1.188 2.507,-2.178 4.156,-2.903c1.584,-0.726 3.365,-1.056 5.213,-1.056c1.913,0 3.628,0.33 5.212,1.056c1.583,0.725 2.969,1.715 4.091,2.903c1.121,1.253 2.045,2.639 2.639,4.222c0.66,1.584 0.923,3.299 0.923,5.081c0,0.264 0,0.528 0,0.792c0,0.264 0,0.461 -0.065,0.527l-22.301,0c0.132,1.386 0.395,2.706 0.989,3.893c0.528,1.188 1.254,2.243 2.112,3.101c0.857,0.858 1.847,1.518 2.969,2.046c1.121,0.461 2.309,0.725 3.563,0.725c0.857,0 1.649,-0.132 2.507,-0.33c0.857,-0.263 1.583,-0.527 2.309,-0.923c0.726,-0.396 1.32,-0.924 1.913,-1.452c0.594,-0.594 0.99,-1.253 1.32,-1.913l2.969,0.792c-0.396,0.989 -0.99,1.847 -1.715,2.639c-0.726,0.791 -1.584,1.451 -2.574,2.045c-0.989,0.594 -2.045,1.056 -3.233,1.32c-1.121,0.396 -2.309,0.527 -3.628,0.527Zm9.633,-14.911c-0.132,-1.385 -0.396,-2.705 -0.99,-3.827c-0.528,-1.121 -1.254,-2.111 -2.112,-2.969c-0.857,-0.857 -1.847,-1.451 -2.969,-1.979c-1.121,-0.462 -2.309,-0.726 -3.562,-0.726c-1.254,0 -2.442,0.264 -3.629,0.726c-1.122,0.462 -2.112,1.122 -2.969,1.979c-0.858,0.858 -1.518,1.848 -2.046,3.035c-0.528,1.188 -0.857,2.442 -0.923,3.827l19.2,0l0,-0.066Z" style="fill:#20273a;fill-rule:nonzero;"/><path d="M277.284,45.348c-1.253,0 -2.375,-0.197 -3.431,-0.593c-1.055,-0.396 -1.979,-0.99 -2.771,-1.716c-0.792,-0.726 -1.385,-1.583 -1.847,-2.573c-0.462,-0.99 -0.66,-2.045 -0.66,-3.167c0,-1.122 0.264,-2.177 0.792,-3.167c0.528,-0.99 1.253,-1.781 2.243,-2.507c0.99,-0.726 2.111,-1.254 3.431,-1.65c1.319,-0.396 2.771,-0.593 4.42,-0.593c1.32,0 2.706,0.131 4.025,0.329c1.386,0.264 2.573,0.594 3.629,0.99l0,-2.375c0,-2.309 -0.66,-4.157 -1.979,-5.476c-1.32,-1.32 -3.101,-2.046 -5.411,-2.046c-1.319,0 -2.705,0.264 -4.09,0.792c-1.386,0.528 -2.837,1.32 -4.223,2.309l-1.056,-2.177c3.365,-2.243 6.664,-3.431 9.831,-3.431c3.299,0 5.806,0.924 7.72,2.771c1.847,1.848 2.771,4.355 2.771,7.588l0,11.744c0,0.924 0.396,1.386 1.254,1.386l0,3.035c-0.594,0.132 -0.99,0.132 -1.32,0.132c-0.858,0 -1.518,-0.198 -2.045,-0.66c-0.462,-0.462 -0.726,-1.056 -0.792,-1.782l-0.132,-2.045c-1.188,1.584 -2.705,2.771 -4.553,3.629c-1.715,0.858 -3.695,1.253 -5.806,1.253Zm0.792,-2.573c1.781,0 3.365,-0.33 4.882,-0.989c1.452,-0.66 2.64,-1.584 3.365,-2.64c0.33,-0.329 0.528,-0.593 0.66,-0.989c0.132,-0.33 0.198,-0.66 0.198,-0.99l0,-4.223c-1.122,-0.461 -2.309,-0.791 -3.497,-0.989c-1.187,-0.264 -2.441,-0.33 -3.761,-0.33c-2.375,0 -4.354,0.528 -5.872,1.517c-1.517,0.99 -2.243,2.31 -2.243,3.959c0,0.792 0.132,1.584 0.462,2.243c0.33,0.726 0.726,1.32 1.319,1.848c0.528,0.528 1.188,0.923 1.98,1.253c0.857,0.198 1.649,0.33 2.507,0.33Z" style="fill:#20273a;fill-rule:nonzero;"/><path d="M315.354,43.633c-0.198,0.132 -0.462,0.264 -0.858,0.396c-0.396,0.198 -0.857,0.33 -1.319,0.528c-0.528,0.198 -1.056,0.33 -1.716,0.462c-0.659,0.132 -1.319,0.198 -1.979,0.198c-0.726,0 -1.452,-0.132 -2.111,-0.33c-0.66,-0.198 -1.254,-0.528 -1.782,-0.924c-0.528,-0.396 -0.924,-0.924 -1.187,-1.584c-0.33,-0.659 -0.462,-1.385 -0.462,-2.177l0,-18.672l-3.629,0l0,-2.705l3.629,0l0,-8.841l3.431,0l0,8.841l6.004,0l0,2.705l-6.07,0l0,17.748c0.066,0.99 0.396,1.65 1.055,2.112c0.594,0.462 1.32,0.66 2.112,0.66c0.989,0 1.847,-0.132 2.573,-0.462c0.726,-0.33 1.187,-0.528 1.385,-0.66l0.924,2.705Z" style="fill:#20273a;fill-rule:nonzero;"/></g></g></g></svg>